<?xml version="1.0" encoding="utf-8"?>
<!-- Generator: Adobe Illustrator 16.0.0, SVG Export Plug-In . SVG Version: 6.00 Build 0)  -->
<!DOCTYPE svg PUBLIC "-//W3C//DTD SVG 1.1//EN" "http://www.w3.org/Graphics/SVG/1.1/DTD/svg11.dtd">
<svg version="1.1" id="图层_3" xmlns="http://www.w3.org/2000/svg" xmlns:xlink="http://www.w3.org/1999/xlink" x="0px" y="0px"
	 width="192px" height="192px" viewBox="0 0 192 192" enable-background="new 0 0 192 192" xml:space="preserve">
<circle fill="#FBBC05" cx="96" cy="96" r="88"/>
<path fill="#FFFFFF" d="M126.8,60.801c7.29,0,13.202,5.906,13.202,13.2c0,7.292-5.912,13.2-13.202,13.2
	c-7.286,0-13.199-5.908-13.199-13.2C113.601,66.707,119.514,60.801,126.8,60.801z"/>
<path fill="#FFFFFF" d="M65.202,60.801c7.287,0,13.2,5.906,13.2,13.2c0,7.292-5.913,13.2-13.2,13.2C57.913,87.2,52,81.292,52,74
	C52,66.707,57.913,60.801,65.202,60.801z"/>
<path opacity="0.8" fill="#FFFFFF" d="M52,113.6c6.858,20.591,23.942,35.201,44.001,35.201s37.143-14.61,44.001-35.201H52z"/>
</svg>
